<svg width="333" height="266" viewBox="0 0 333 266" fill="none" xmlns="http://www.w3.org/2000/svg">
<path fill-rule="evenodd" clip-rule="evenodd" d="M0.000488281 253.901C0.000488281 258.434 65.7845 262.108 146.932 262.108C228.079 262.108 293.863 258.434 293.863 253.901C293.863 249.369 228.079 245.694 146.932 245.694C65.7845 245.694 0.000488281 249.369 0.000488281 253.901Z" fill="#9B8064" fill-opacity="0.33"/>
<path fill-rule="evenodd" clip-rule="evenodd" d="M17.5645 251.943L73.2035 265.799L118.132 257.439L56.0865 247.685L17.5645 251.943Z" fill="#F5F5F5"/>
<path fill-rule="evenodd" clip-rule="evenodd" d="M132.35 236.474C130.667 236.474 129.303 237.838 129.303 239.521C129.303 241.203 130.667 242.568 132.35 242.568" fill="#D4DBDF"/>
<path fill-rule="evenodd" clip-rule="evenodd" d="M63.6748 251.942H124.174V215.691H63.6748V251.942Z" fill="#607D8C"/>
<path fill-rule="evenodd" clip-rule="evenodd" d="M107.674 116.879V215.692H80.1753H47.1753V116.879H107.674Z" fill="#F5F5F5"/>
<path fill-rule="evenodd" clip-rule="evenodd" d="M92.4399 153.769C92.4399 152.086 93.8039 150.722 95.4869 150.722C97.1699 150.722 98.5339 152.086 98.5339 153.769C98.5339 155.452 97.1699 156.816 95.4869 156.816C93.8039 156.816 92.4399 155.452 92.4399 153.769Z" fill="#D4DBDF"/>
<path fill-rule="evenodd" clip-rule="evenodd" d="M80.0649 153.769C80.0649 152.086 81.4289 150.722 83.1119 150.722C84.7949 150.722 86.1589 152.086 86.1589 153.769C86.1589 155.452 84.7949 156.816 83.1119 156.816C81.4289 156.816 80.0649 155.452 80.0649 153.769Z" fill="#D4DBDF"/>
<path fill-rule="evenodd" clip-rule="evenodd" d="M154.176 116.879V251.943H124.174V215.692H107.674V116.879H154.176Z" fill="#D4DBDF"/>
<path fill-rule="evenodd" clip-rule="evenodd" d="M62.4094 129.254C62.4094 130.937 61.0454 132.301 59.3624 132.301C57.6804 132.301 56.3154 130.937 56.3154 129.254C56.3154 127.571 57.6804 126.207 59.3624 126.207C61.0454 126.207 62.4094 127.571 62.4094 129.254Z" fill="#D4DBDF"/>
<path fill-rule="evenodd" clip-rule="evenodd" d="M74.7844 129.254C74.7844 130.937 73.4204 132.301 71.7374 132.301C70.0554 132.301 68.6904 130.937 68.6904 129.254C68.6904 127.571 70.0554 126.207 71.7374 126.207C73.4204 126.207 74.7844 127.571 74.7844 129.254Z" fill="#607D8C"/>
<path fill-rule="evenodd" clip-rule="evenodd" d="M62.4094 178.754C62.4094 180.437 61.0454 181.801 59.3624 181.801C57.6804 181.801 56.3154 180.437 56.3154 178.754C56.3154 177.071 57.6804 175.707 59.3624 175.707C61.0454 175.707 62.4094 177.071 62.4094 178.754Z" fill="#607D8C"/>
<path fill-rule="evenodd" clip-rule="evenodd" d="M74.7844 178.754C74.7844 180.437 73.4204 181.801 71.7374 181.801C70.0554 181.801 68.6904 180.437 68.6904 178.754C68.6904 177.071 70.0554 175.707 71.7374 175.707C73.4204 175.707 74.7844 177.071 74.7844 178.754Z" fill="#607D8C"/>
<path fill-rule="evenodd" clip-rule="evenodd" d="M92.4399 203.269C92.4399 201.586 93.8039 200.222 95.4869 200.222C97.1699 200.222 98.5339 201.586 98.5339 203.269C98.5339 204.952 97.1699 206.316 95.4869 206.316C93.8039 206.316 92.4399 204.952 92.4399 203.269Z" fill="#607D8C"/>
<path fill-rule="evenodd" clip-rule="evenodd" d="M80.0649 203.269C80.0649 201.586 81.4289 200.222 83.1119 200.222C84.7949 200.222 86.1589 201.586 86.1589 203.269C86.1589 204.952 84.7949 206.316 83.1119 206.316C81.4289 206.316 80.0649 204.952 80.0649 203.269Z" fill="#D4DBDF"/>
<path fill-rule="evenodd" clip-rule="evenodd" d="M96.9858 233.817C96.9858 238.822 101.044 242.88 106.049 242.88C111.054 242.88 115.112 238.822 115.112 233.817C115.112 228.812 111.054 224.754 106.049 224.754C101.044 224.754 96.9858 228.812 96.9858 233.817Z" fill="#28404E"/>
<path fill-rule="evenodd" clip-rule="evenodd" d="M72.7378 233.817C72.7378 238.822 76.7958 242.88 81.8008 242.88C86.8058 242.88 90.8638 238.822 90.8638 233.817C90.8638 228.812 86.8058 224.754 81.8008 224.754C76.7958 224.754 72.7378 228.812 72.7378 233.817Z" fill="#28404E"/>
<path d="M107.675 141.879H47.1753" stroke="#D4DBDF" stroke-width="2"/>
<path fill-rule="evenodd" clip-rule="evenodd" d="M174.926 165.004C174.926 166.687 173.562 168.051 171.879 168.051C170.197 168.051 168.832 166.687 168.832 165.004C168.832 163.321 170.197 161.957 171.879 161.957C173.562 161.957 174.926 163.321 174.926 165.004Z" fill="#D4DBDF"/>
<path fill-rule="evenodd" clip-rule="evenodd" d="M184.958 239.019C184.958 237.336 186.322 235.972 188.005 235.972C189.687 235.972 191.052 237.336 191.052 239.019C191.052 240.702 189.687 242.066 188.005 242.066C186.322 242.066 184.958 240.702 184.958 239.019Z" fill="#D4DBDF"/>
<path fill-rule="evenodd" clip-rule="evenodd" d="M172.583 239.019C172.583 237.336 173.947 235.972 175.63 235.972C177.312 235.972 178.677 237.336 178.677 239.019C178.677 240.702 177.312 242.066 175.63 242.066C173.947 242.066 172.583 240.702 172.583 239.019Z" fill="#D4DBDF"/>
<path fill-rule="evenodd" clip-rule="evenodd" d="M144.176 153.13V251.943H192.302H217.052V153.13H144.176Z" fill="#D4DBDF"/>
<path fill-rule="evenodd" clip-rule="evenodd" d="M134.175 251.942H164.177V153.129H134.175V251.942Z" fill="#FEFEFE"/>
<path fill-rule="evenodd" clip-rule="evenodd" d="M179.411 165.505C179.411 167.188 178.047 168.552 176.364 168.552C174.682 168.552 173.317 167.188 173.317 165.505C173.317 163.822 174.682 162.458 176.364 162.458C178.047 162.458 179.411 163.822 179.411 165.505Z" fill="#FEFEFE"/>
<path fill-rule="evenodd" clip-rule="evenodd" d="M191.786 165.505C191.786 167.188 190.422 168.552 188.739 168.552C187.057 168.552 185.692 167.188 185.692 165.505C185.692 163.822 187.057 162.458 188.739 162.458C190.422 162.458 191.786 163.822 191.786 165.505Z" fill="#607D8C"/>
<path d="M217.052 227.192H164.177" stroke="#607D8C" stroke-width="2"/>
<path fill-rule="evenodd" clip-rule="evenodd" d="M179.411 215.005C179.411 216.688 178.047 218.052 176.364 218.052C174.682 218.052 173.317 216.688 173.317 215.005C173.317 213.322 174.682 211.958 176.364 211.958C178.047 211.958 179.411 213.322 179.411 215.005Z" fill="#FEFEFE"/>
<path fill-rule="evenodd" clip-rule="evenodd" d="M191.786 215.005C191.786 216.688 190.422 218.052 188.739 218.052C187.057 218.052 185.692 216.688 185.692 215.005C185.692 213.322 187.057 211.958 188.739 211.958C190.422 211.958 191.786 213.322 191.786 215.005Z" fill="#FEFEFE"/>
<path fill-rule="evenodd" clip-rule="evenodd" d="M201.817 239.521C201.817 237.838 203.181 236.474 204.864 236.474C206.546 236.474 207.911 237.838 207.911 239.521C207.911 241.204 206.546 242.568 204.864 242.568C203.181 242.568 201.817 241.204 201.817 239.521Z" fill="#FEFEFE"/>
<path fill-rule="evenodd" clip-rule="evenodd" d="M189.442 239.521C189.442 237.838 190.806 236.474 192.489 236.474C194.171 236.474 195.536 237.838 195.536 239.521C195.536 241.204 194.171 242.568 192.489 242.568C190.806 242.568 189.442 241.204 189.442 239.521Z" fill="#607D8C"/>
<path fill-rule="evenodd" clip-rule="evenodd" d="M201.817 189.817C201.817 191.5 203.181 192.864 204.864 192.864C206.546 192.864 207.911 191.5 207.911 189.817C207.911 188.134 206.546 186.77 204.864 186.77C203.181 186.77 201.817 188.134 201.817 189.817Z" fill="#607D8C"/>
<path fill-rule="evenodd" clip-rule="evenodd" d="M189.442 189.817C189.442 191.5 190.806 192.864 192.489 192.864C194.171 192.864 195.536 191.5 195.536 189.817C195.536 188.134 194.171 186.77 192.489 186.77C190.806 186.77 189.442 188.134 189.442 189.817Z" fill="#607D8C"/>
<path d="M107.675 191.191H47.1753" stroke="#D4DBDF" stroke-width="2"/>
<path d="M107.675 166.191H47.1753" stroke="#D4DBDF" stroke-width="2"/>
<path d="M217.052 202.442H164.177" stroke="#607D8C" stroke-width="2"/>
<path d="M217.052 177.442H164.177" stroke="#607D8C" stroke-width="2"/>
<path fill-rule="evenodd" clip-rule="evenodd" d="M169.946 111.869C169.946 114.635 167.713 116.878 164.958 116.878H60.1594C57.4044 116.878 55.1714 114.635 55.1714 111.869H169.946Z" fill="#FEFEFE"/>
<path fill-rule="evenodd" clip-rule="evenodd" d="M187.447 111.869C187.447 114.635 185.214 116.878 182.459 116.878H87.6733V111.869H187.447Z" fill="#607D8C"/>
<path fill-rule="evenodd" clip-rule="evenodd" d="M55.1584 49.2598H139.956C142.711 49.2598 144.944 51.5028 144.944 54.2688V111.869H55.1714C52.4094 111.869 50.1714 109.631 50.1714 106.869V54.2688C50.1714 51.5028 52.4044 49.2598 55.1584 49.2598Z" fill="#FEFEFE"/>
<path fill-rule="evenodd" clip-rule="evenodd" d="M60.1594 49.2598H144.957C147.712 49.2598 149.945 51.5028 149.945 54.2688V111.869H55.1714V54.2688C55.1714 51.5028 57.4044 49.2598 60.1594 49.2598Z" fill="#28404E"/>
<path fill-rule="evenodd" clip-rule="evenodd" d="M60.1709 106.868H144.944V54.26H60.1709V106.868Z" fill="#DF6AA4"/>
<path fill-rule="evenodd" clip-rule="evenodd" d="M81.9473 77.6424L93.7543 72.1714V76.0594L85.1153 79.8744L93.7543 83.6544V87.5784L81.9473 82.0704V77.6424Z" fill="#5A5598"/>
<path fill-rule="evenodd" clip-rule="evenodd" d="M104.951 67.1675H109.09L100.164 93.5885H96.0234L104.951 67.1675Z" fill="#5A5598"/>
<path fill-rule="evenodd" clip-rule="evenodd" d="M123.166 82.0699L111.324 87.5779V83.6539L119.963 79.8749L111.324 76.0589V72.1719L123.166 77.6419V82.0699Z" fill="#5A5598"/>
<path d="M218.033 166.324L237.398 251.591" stroke="#DF6AA4" stroke-width="4.5" stroke-linecap="round" stroke-linejoin="round"/>
<path fill-rule="evenodd" clip-rule="evenodd" d="M326.798 142.806L301.433 104.844C312.404 82.5392 311.533 55.1612 296.73 33.0072C274.638 -0.0557976 229.926 -8.9498 196.862 13.1422C163.8 35.2342 154.906 79.9462 176.998 113.009C191.802 135.164 216.761 146.446 241.568 144.845L266.933 182.807C277.979 199.339 300.334 203.785 316.866 192.74C333.398 181.693 337.845 159.337 326.798 142.806Z" fill="#28404E"/>
<path d="M242.63 172.185C249.717 203.391 265.144 213.717 297.947 194.211" stroke="#DF6AA4" stroke-width="4.5" stroke-linecap="round" stroke-linejoin="round"/>
<path fill-rule="evenodd" clip-rule="evenodd" d="M174.169 94.1837C173.199 99.0587 176.365 103.797 181.24 104.767C186.115 105.737 190.854 102.571 191.823 97.6957C192.793 92.8207 189.627 88.0817 184.752 87.1127C179.877 86.1427 175.139 89.3087 174.169 94.1837Z" fill="#77624B"/>
<path d="M140.01 86.5662C144.01 113.517 157.01 121.855 176.884 127.154" stroke="#77624B" stroke-width="4.5" stroke-linecap="round" stroke-linejoin="round"/>
<path fill-rule="evenodd" clip-rule="evenodd" d="M268.325 112.912C267.355 117.787 270.52 122.525 275.396 123.495C280.271 124.465 285.009 121.299 285.978 116.424C286.948 111.549 283.783 106.81 278.907 105.841C274.032 104.871 269.295 108.037 268.325 112.912Z" fill="#77624B"/>
<path d="M293.855 178.062C293.351 161.972 282.447 150.061 271.04 145.882" stroke="#77624B" stroke-width="4.5" stroke-linecap="round" stroke-linejoin="round"/>
<path fill-rule="evenodd" clip-rule="evenodd" d="M283.647 82.3135L279.806 101.814L264.955 176.477L170.799 157.748L189.528 63.5925C192.113 50.5955 199.725 39.8835 209.936 33.0615L283.647 82.3135Z" fill="#998064"/>
<path d="M208.821 73.8428H227.172" stroke="#28404E" stroke-width="4.5" stroke-linecap="round" stroke-linejoin="round"/>
<path d="M243.362 84.7104L260.316 91.7324" stroke="#28404E" stroke-width="4.5" stroke-linecap="round" stroke-linejoin="round"/>
<path opacity="0.5" fill-rule="evenodd" clip-rule="evenodd" d="M210.719 110.631C209.749 115.505 205.012 118.67 200.138 117.701C195.264 116.731 192.099 111.994 193.069 107.12C194.037 102.246 198.775 99.0795 203.649 100.05C208.524 101.02 211.689 105.756 210.719 110.631Z" fill="#77624B"/>
<path opacity="0.5" fill-rule="evenodd" clip-rule="evenodd" d="M263.682 121.165C262.712 126.039 257.975 129.205 253.101 128.235C248.227 127.266 245.061 122.528 246.031 117.654C247 112.78 251.738 109.615 256.612 110.584C261.486 111.554 264.651 116.291 263.682 121.165Z" fill="#77624B"/>
<path d="M254.13 119.265C245.622 121.49 236.492 121.874 227.287 120.043C218.082 118.212 209.795 114.363 202.785 109.052" stroke="#5A5596" stroke-width="2.25" stroke-linecap="round" stroke-linejoin="round"/>
<path fill-rule="evenodd" clip-rule="evenodd" d="M220.003 91.0657C219.68 92.6907 218.101 93.7457 216.476 93.4227C214.851 93.0997 213.795 91.5207 214.118 89.8957C214.441 88.2707 216.022 87.2147 217.647 87.5387C219.272 87.8617 220.326 89.4407 220.003 91.0657Z" fill="#28404E"/>
<path fill-rule="evenodd" clip-rule="evenodd" d="M250.899 97.2111C250.576 98.8361 248.996 99.8911 247.371 99.5681C245.746 99.2451 244.691 97.6661 245.014 96.0411C245.337 94.4161 246.917 93.3601 248.542 93.6831C250.167 94.0061 251.222 95.5861 250.899 97.2111Z" fill="#28404E"/>
<path fill-rule="evenodd" clip-rule="evenodd" d="M175.445 134.201L269.637 152.937L264.955 176.476L170.762 157.74L175.445 134.201Z" fill="#80D6ED"/>
<mask id="mask0" mask-type="alpha" maskUnits="userSpaceOnUse" x="224" y="86" width="16" height="23">
<path fill-rule="evenodd" clip-rule="evenodd" d="M225.992 95.315L227.748 86.488L233.632 87.659L239.517 88.83L237.761 97.657L236.591 103.541C235.945 106.791 232.785 108.902 229.535 108.255C226.285 107.609 224.175 104.45 224.822 101.2L225.992 95.315Z" fill="white"/>
</mask>
<g mask="url(#mask0)">
<path fill-rule="evenodd" clip-rule="evenodd" d="M225.992 95.315L224.822 101.2C224.175 104.45 226.285 107.609 229.535 108.255C232.785 108.902 235.945 106.791 236.591 103.541L237.761 97.657L239.517 88.83L233.632 87.659L227.748 86.488L225.992 95.315Z" fill="url(#paint0_linear)"/>
</g>
<defs>
<linearGradient id="paint0_linear" x1="236.506" y1="111.282" x2="244.68" y2="92.4559" gradientUnits="userSpaceOnUse">
<stop stop-color="#887056"/>
<stop offset="1" stop-color="#9A8165"/>
</linearGradient>
</defs>
</svg>
