<svg width="532" height="917" viewBox="0 0 532 917" fill="none" xmlns="http://www.w3.org/2000/svg">
<g opacity="0.5">
<path fill-rule="evenodd" clip-rule="evenodd" d="M0.999512 887.496C0.999512 891.546 119.707 894.825 266.137 894.825C364.941 894.825 531.273 891.546 531.273 887.496C531.273 883.449 412.566 880.17 266.137 880.17C119.707 880.17 0.999512 883.449 0.999512 887.496Z" fill="#ECD874" style="mix-blend-mode:multiply"/>
</g>
<path fill-rule="evenodd" clip-rule="evenodd" d="M314.618 477.146C308.609 477.146 303.74 494.549 303.74 500.9H325.496C325.496 494.549 320.627 477.146 314.618 477.146Z" fill="#607D8B"/>
<path fill-rule="evenodd" clip-rule="evenodd" d="M297.125 477.146C291.116 477.146 286.247 494.549 286.247 500.9H308.003C308.003 494.549 303.134 477.146 297.125 477.146Z" fill="#D5DBDF"/>
<path fill-rule="evenodd" clip-rule="evenodd" d="M333.39 477.146C327.381 477.146 322.512 494.549 322.512 500.9H344.268C344.268 494.549 339.399 477.146 333.39 477.146Z" fill="#D5DBDF"/>
<path fill-rule="evenodd" clip-rule="evenodd" d="M286.246 486.271H344.269V178.294H286.246V486.271Z" fill="white"/>
<path fill-rule="evenodd" clip-rule="evenodd" d="M315.256 486.271H344.269V178.294H315.256V486.271Z" fill="#D5DBDF"/>
<path fill-rule="evenodd" clip-rule="evenodd" d="M333.084 142.643H297.432L286.245 178.295H344.271L333.084 142.643Z" fill="#F5F6F7"/>
<path fill-rule="evenodd" clip-rule="evenodd" d="M297.433 142.645H333.085V35.467H297.433V142.645Z" fill="white"/>
<path fill-rule="evenodd" clip-rule="evenodd" d="M315.259 142.645H333.085V35.467H315.259V142.645Z" fill="#D5DBDF"/>
<path fill-rule="evenodd" clip-rule="evenodd" d="M286.246 313.684H300.751V255.661H286.246V313.684Z" fill="#28404E"/>
<path fill-rule="evenodd" clip-rule="evenodd" d="M286.246 486.273H271.969V475.113L286.246 461.724V486.273Z" fill="white"/>
<path fill-rule="evenodd" clip-rule="evenodd" d="M344.269 486.273H358.546V475.113L344.269 461.724V486.273Z" fill="#28404E"/>
<path fill-rule="evenodd" clip-rule="evenodd" d="M297.43 142.642H315.256V106.99H297.43V142.642Z" fill="#28404E"/>
<path fill-rule="evenodd" clip-rule="evenodd" d="M297.433 88.945H333.085V71.119H297.433V88.945Z" fill="#28404E"/>
<path fill-rule="evenodd" clip-rule="evenodd" d="M344.269 178.296H315.256V142.644H333.082L344.269 178.296Z" fill="#28404E"/>
<path fill-rule="evenodd" clip-rule="evenodd" d="M315.257 0.998779C315.257 0.998779 333.083 20.5888 333.083 35.4658H297.431C297.431 20.5888 315.257 0.998779 315.257 0.998779Z" fill="#F5F6F7"/>
<path fill-rule="evenodd" clip-rule="evenodd" d="M315.259 313.684H329.764V255.661H315.259V313.684Z" fill="#28404E"/>
<path fill-rule="evenodd" clip-rule="evenodd" d="M286.246 486.274H300.751V428.248H286.246V486.274Z" fill="#28404E"/>
<path fill-rule="evenodd" clip-rule="evenodd" d="M315.259 486.274H329.764V428.248H315.259V486.274Z" fill="#28404E"/>
<path fill-rule="evenodd" clip-rule="evenodd" d="M344.269 500.902H286.246C256.096 588.931 291.061 652.162 282.88 885.751H347.635C339.454 652.162 374.416 588.931 344.269 500.902Z" fill="white"/>
<path fill-rule="evenodd" clip-rule="evenodd" d="M329.763 500.902H300.75C287.472 578.446 311.523 638.344 314.643 811.177C318 638.344 343.041 578.446 329.763 500.902Z" fill="#F6F6F6"/>
<path fill-rule="evenodd" clip-rule="evenodd" d="M170.734 904.101L234.046 916.044L283.588 897.957L231.298 892.764L170.734 904.101Z" fill="#F5F6F7"/>
<path fill-rule="evenodd" clip-rule="evenodd" d="M285.032 885.75L311.822 841.101L285.032 796.455V751.812L311.822 707.166L285.032 662.52L311.822 617.874H186.812L160.025 662.52L186.812 707.166L160.025 751.812V796.455L186.812 841.101L160.025 885.75H285.032Z" fill="white"/>
<path fill-rule="evenodd" clip-rule="evenodd" d="M343.179 898.122L383.298 890.658L327.894 881.946L293.496 885.75L343.179 898.122Z" fill="#F5F6F7"/>
<path fill-rule="evenodd" clip-rule="evenodd" d="M285.033 885.75L311.823 841.101L285.033 796.455V751.812L311.823 707.166L285.033 662.52L311.823 617.874H267.174L240.384 662.52L267.174 707.166L240.384 751.812V796.455L267.174 841.101L240.384 885.75H285.033Z" fill="#D5DBDF"/>
<path opacity="0.5" fill-rule="evenodd" clip-rule="evenodd" d="M256.15 688.794L177.883 662.52H240.385L256.15 688.794Z" fill="#607D8B"/>
<path opacity="0.5" fill-rule="evenodd" clip-rule="evenodd" d="M256.15 822.732L177.883 796.455H240.385L256.15 822.732Z" fill="#607D8B"/>
<path fill-rule="evenodd" clip-rule="evenodd" d="M186.814 841.101H233.608L180.208 852.114L186.814 841.101Z" fill="#D5DBDF"/>
<path fill-rule="evenodd" clip-rule="evenodd" d="M186.814 707.165H233.608L180.208 718.175L186.814 707.165Z" fill="#D5DBDF"/>
<path fill-rule="evenodd" clip-rule="evenodd" d="M260.4 629.161H191.442L254.292 639.391L260.4 629.161Z" fill="#D5DBDF"/>
<path fill-rule="evenodd" clip-rule="evenodd" d="M240.384 760.74H171.426L240.384 771.963V760.74Z" fill="#D5DBDF"/>
<path fill-rule="evenodd" clip-rule="evenodd" d="M260.348 514.897L319.922 535.663L313.19 574.378L253.616 553.612L260.348 514.897Z" fill="#D5DBDF"/>
<path fill-rule="evenodd" clip-rule="evenodd" d="M211.91 589.312H278.267L300.389 552.445H234.032L211.91 589.312Z" fill="#F5F6F7"/>
<path fill-rule="evenodd" clip-rule="evenodd" d="M193.717 511.097L253.069 481.421L289.342 504.503L229.99 534.179L193.717 511.097Z" fill="#F5F6F7"/>
<path fill-rule="evenodd" clip-rule="evenodd" d="M219.16 513.653L217.132 512.345L217.594 514.874C218.023 515.084 218.638 515.279 219.358 514.904C220.324 514.403 219.487 513.866 219.16 513.653ZM213.772 512.423L215.8 513.731L215.338 511.217C214.945 511.004 214.261 510.806 213.565 511.169C212.599 511.667 213.445 512.213 213.772 512.423ZM216.874 510.815L220.333 513.044C221.674 513.911 221.926 514.883 220.486 515.63C219.046 516.377 217.387 516.134 216.046 515.27L212.587 513.038C211.255 512.18 210.994 511.19 212.437 510.443C213.877 509.696 215.566 509.972 216.874 510.815Z" fill="#83D2EA"/>
<path fill-rule="evenodd" clip-rule="evenodd" d="M228.87 511.11L224.592 513.327L223.41 512.565L224.907 511.788L220.41 508.89L218.913 509.667L218.01 509.085C218.766 508.692 218.856 508.317 218.736 508.026C218.676 507.864 218.538 507.696 218.337 507.552L219.615 506.889L226.185 511.125L227.685 510.348L228.87 511.11Z" fill="#83D2EA"/>
<path fill-rule="evenodd" clip-rule="evenodd" d="M231.715 507.144L229.687 505.836L230.152 508.365C230.578 508.575 231.193 508.767 231.913 508.395C232.879 507.894 232.042 507.357 231.715 507.144ZM226.327 505.914L228.358 507.222L227.893 504.708C227.5 504.492 226.816 504.297 226.12 504.657C225.154 505.158 226.003 505.704 226.327 505.914ZM229.429 504.306L232.891 506.535C234.232 507.402 234.484 508.374 233.041 509.121C231.601 509.868 229.942 509.625 228.601 508.758L225.142 506.529C223.81 505.671 223.549 504.681 224.992 503.931C226.432 503.184 228.124 503.463 229.429 504.306Z" fill="#83D2EA"/>
<path fill-rule="evenodd" clip-rule="evenodd" d="M241.424 504.601L237.149 506.818L235.964 506.056L237.464 505.279L232.967 502.378L231.467 503.158L230.564 502.576C231.32 502.183 231.41 501.808 231.293 501.517C231.23 501.352 231.095 501.184 230.891 501.04L232.172 500.38L238.742 504.616L240.239 503.839L241.424 504.601Z" fill="#83D2EA"/>
<path fill-rule="evenodd" clip-rule="evenodd" d="M247.702 501.346L243.424 503.563L242.242 502.801L243.742 502.024L239.245 499.123L237.745 499.903L236.842 499.321C237.598 498.928 237.688 498.553 237.571 498.262C237.508 498.097 237.373 497.929 237.169 497.785L238.447 497.125L245.017 501.361L246.517 500.584L247.702 501.346Z" fill="#83D2EA"/>
<path fill-rule="evenodd" clip-rule="evenodd" d="M250.55 497.377L248.522 496.069L248.984 498.598C249.41 498.808 250.025 499.003 250.745 498.628C251.714 498.127 250.877 497.59 250.55 497.377ZM245.159 496.147L247.19 497.455L246.728 494.941C246.335 494.728 245.651 494.53 244.952 494.893C243.986 495.391 244.835 495.937 245.159 496.147ZM248.264 494.539L251.723 496.768C253.064 497.632 253.316 498.607 251.873 499.354C250.433 500.101 248.777 499.858 247.433 498.994L243.974 496.762C242.645 495.904 242.384 494.914 243.824 494.167C245.264 493.417 246.956 493.696 248.264 494.539Z" fill="#83D2EA"/>
<path fill-rule="evenodd" clip-rule="evenodd" d="M256.827 494.123L254.799 492.815L255.261 495.344C255.69 495.554 256.305 495.749 257.025 495.374C257.991 494.873 257.154 494.336 256.827 494.123ZM251.439 492.893L253.467 494.201L253.005 491.687C252.612 491.474 251.928 491.276 251.229 491.636C250.266 492.137 251.112 492.683 251.439 492.893ZM254.541 491.285L258 493.514C259.341 494.378 259.593 495.353 258.153 496.1C256.71 496.847 255.054 496.604 253.71 495.74L250.251 493.508C248.922 492.65 248.661 491.657 250.101 490.91C251.544 490.163 253.233 490.442 254.541 491.285Z" fill="#83D2EA"/>
<path fill-rule="evenodd" clip-rule="evenodd" d="M231.849 521.833L229.821 520.525L230.283 523.054C230.715 523.264 231.327 523.459 232.047 523.084C233.013 522.583 232.176 522.043 231.849 521.833ZM226.461 520.603L228.489 521.911L228.027 519.397C227.634 519.184 226.95 518.986 226.254 519.349C225.288 519.847 226.134 520.393 226.461 520.603ZM229.563 518.995L233.022 521.224C234.363 522.091 234.615 523.063 233.175 523.81C231.735 524.557 230.076 524.314 228.735 523.45L225.276 521.218C223.944 520.36 223.683 519.37 225.126 518.623C226.566 517.876 228.255 518.152 229.563 518.995Z" fill="#83D2EA"/>
<path fill-rule="evenodd" clip-rule="evenodd" d="M241.562 519.29L237.284 521.507L236.099 520.745L237.596 519.968L233.099 517.07L231.602 517.847L230.699 517.262C231.455 516.872 231.545 516.497 231.425 516.206C231.365 516.044 231.227 515.876 231.026 515.732L232.304 515.069L238.874 519.305L240.374 518.528L241.562 519.29Z" fill="#83D2EA"/>
<path fill-rule="evenodd" clip-rule="evenodd" d="M244.404 515.323L242.376 514.015L242.841 516.544C243.27 516.754 243.882 516.946 244.602 516.574C245.568 516.073 244.731 515.533 244.404 515.323ZM239.016 514.093L241.047 515.401L240.582 512.887C240.189 512.671 239.505 512.476 238.809 512.836C237.843 513.337 238.692 513.883 239.016 514.093ZM242.118 512.485L245.58 514.714C246.921 515.581 247.173 516.553 245.73 517.3C244.29 518.047 242.631 517.804 241.29 516.937L237.831 514.708C236.499 513.85 236.238 512.86 237.681 512.11C239.121 511.363 240.813 511.639 242.118 512.485Z" fill="#83D2EA"/>
<path fill-rule="evenodd" clip-rule="evenodd" d="M250.682 512.068L248.654 510.76L249.116 513.286C249.545 513.499 250.16 513.691 250.88 513.319C251.846 512.818 251.009 512.278 250.682 512.068ZM245.294 510.838L247.322 512.146L246.86 509.632C246.467 509.416 245.783 509.221 245.087 509.581C244.121 510.082 244.967 510.628 245.294 510.838ZM248.396 509.23L251.858 511.459C253.199 512.323 253.451 513.298 252.008 514.045C250.568 514.792 248.909 514.549 247.568 513.682L244.109 511.453C242.777 510.595 242.516 509.602 243.959 508.855C245.399 508.108 247.091 508.384 248.396 509.23Z" fill="#83D2EA"/>
<path fill-rule="evenodd" clip-rule="evenodd" d="M260.394 509.525L256.116 511.742L254.931 510.98L256.431 510.203L251.934 507.302L250.434 508.082L249.531 507.497C250.287 507.104 250.377 506.732 250.26 506.441C250.197 506.276 250.062 506.108 249.858 505.964L251.136 505.304L257.706 509.54L259.206 508.763L260.394 509.525Z" fill="#83D2EA"/>
<path fill-rule="evenodd" clip-rule="evenodd" d="M263.239 505.557L261.211 504.249L261.673 506.778C262.102 506.988 262.714 507.183 263.434 506.808C264.403 506.307 263.566 505.767 263.239 505.557ZM257.848 504.327L259.879 505.635L259.417 503.121C259.024 502.908 258.34 502.71 257.641 503.073C256.675 503.571 257.524 504.117 257.848 504.327ZM260.953 502.719L264.412 504.948C265.753 505.812 266.005 506.787 264.562 507.534C263.122 508.281 261.466 508.038 260.122 507.174L256.663 504.942C255.334 504.084 255.073 503.094 256.513 502.347C257.953 501.597 259.645 501.876 260.953 502.719Z" fill="#83D2EA"/>
<path fill-rule="evenodd" clip-rule="evenodd" d="M272.951 503.014L268.673 505.231L267.488 504.469L268.988 503.692L264.491 500.791L262.991 501.571L262.088 500.986C262.844 500.596 262.934 500.221 262.814 499.93C262.754 499.765 262.619 499.6 262.415 499.456L263.693 498.793L270.263 503.029L271.763 502.252L272.951 503.014Z" fill="#83D2EA"/>
<path fill-rule="evenodd" clip-rule="evenodd" d="M265.716 477.248L230.706 456.203L235.92 421.1L270.93 442.145L265.716 477.248Z" fill="#F5F6F7"/>
<path fill-rule="evenodd" clip-rule="evenodd" d="M282.866 393.653L244.469 406.796L224.366 389.846L262.763 376.703L282.866 393.653Z" fill="#83D2EA"/>
<path fill-rule="evenodd" clip-rule="evenodd" d="M293.498 359.521L247.454 353.323L228.659 376.837L274.703 383.035L293.498 359.521Z" fill="#F5F6F7"/>
<path fill-rule="evenodd" clip-rule="evenodd" d="M211.91 589.312H278.267L300.389 552.445H234.032L211.91 589.312Z" fill="#F5F6F7"/>
<path fill-rule="evenodd" clip-rule="evenodd" d="M239.567 562.052L238.274 564.275L241.811 561.68C242.003 561.287 242.081 560.768 241.34 560.768C240.314 560.768 239.774 561.695 239.567 562.052ZM239.414 565.844L240.707 563.618L237.152 566.225C236.978 566.633 236.885 567.113 237.65 567.113C238.676 567.113 239.207 566.201 239.414 565.844ZM242.867 562.052L240.662 565.844C239.807 567.311 238.463 568.349 236.933 568.349C235.4 568.349 235.25 567.311 236.102 565.844L238.307 562.052C239.156 560.597 240.524 559.535 242.057 559.535C243.59 559.535 243.698 560.621 242.867 562.052Z" fill="#83D2EA"/>
<path fill-rule="evenodd" clip-rule="evenodd" d="M246.095 568.188H241.544L242.297 566.892H243.893L246.758 561.966H245.162L245.738 560.979C246.539 560.979 247.115 560.67 247.508 560.334C247.727 560.148 247.928 559.929 248.078 559.692H249.437L245.252 566.892H246.848L246.095 568.188Z" fill="#83D2EA"/>
<path fill-rule="evenodd" clip-rule="evenodd" d="M252.905 562.052L251.612 564.275L255.149 561.68C255.341 561.287 255.419 560.768 254.678 560.768C253.652 560.768 253.112 561.695 252.905 562.052ZM252.752 565.844L254.045 563.618L250.49 566.225C250.316 566.633 250.223 567.113 250.988 567.113C252.014 567.113 252.545 566.201 252.752 565.844ZM256.205 562.052L254 565.844C253.145 567.311 251.801 568.349 250.271 568.349C248.738 568.349 248.588 567.311 249.44 565.844L251.645 562.052C252.494 560.597 253.862 559.535 255.395 559.535C256.928 559.535 257.036 560.621 256.205 562.052Z" fill="#83D2EA"/>
<path fill-rule="evenodd" clip-rule="evenodd" d="M259.434 568.188H254.883L255.636 566.892H257.232L260.097 561.966H258.501L259.077 560.979C259.878 560.979 260.454 560.67 260.847 560.334C261.066 560.148 261.267 559.929 261.417 559.692H262.776L258.591 566.892H260.187L259.434 568.188Z" fill="#83D2EA"/>
<path fill-rule="evenodd" clip-rule="evenodd" d="M266.102 568.188H261.551L262.304 566.892H263.9L266.765 561.966H265.169L265.745 560.979C266.546 560.979 267.122 560.67 267.515 560.334C267.734 560.148 267.935 559.929 268.085 559.692H269.444L265.259 566.892H266.855L266.102 568.188Z" fill="#83D2EA"/>
<path fill-rule="evenodd" clip-rule="evenodd" d="M272.915 562.052L271.622 564.275L275.159 561.68C275.351 561.287 275.429 560.768 274.688 560.768C273.662 560.768 273.122 561.695 272.915 562.052ZM272.762 565.844L274.055 563.618L270.5 566.225C270.326 566.633 270.233 567.113 270.998 567.113C272.024 567.113 272.555 566.201 272.762 565.844ZM276.215 562.052L274.01 565.844C273.155 567.311 271.811 568.349 270.281 568.349C268.748 568.349 268.598 567.311 269.45 565.844L271.655 562.052C272.504 560.597 273.872 559.535 275.405 559.535C276.938 559.535 277.046 560.621 276.215 562.052Z" fill="#83D2EA"/>
<path fill-rule="evenodd" clip-rule="evenodd" d="M279.583 562.052L278.29 564.275L281.827 561.68C282.019 561.287 282.097 560.768 281.356 560.768C280.33 560.768 279.79 561.695 279.583 562.052ZM279.43 565.844L280.723 563.618L277.168 566.225C276.994 566.633 276.901 567.113 277.666 567.113C278.692 567.113 279.223 566.201 279.43 565.844ZM282.883 562.052L280.678 565.844C279.823 567.311 278.479 568.349 276.949 568.349C275.416 568.349 275.266 567.311 276.118 565.844L278.323 562.052C279.172 560.597 280.54 559.535 282.073 559.535C283.606 559.535 283.714 560.621 282.883 562.052Z" fill="#83D2EA"/>
<path fill-rule="evenodd" clip-rule="evenodd" d="M231.488 575.946L230.195 578.169L233.732 575.574C233.924 575.181 234.002 574.662 233.261 574.662C232.235 574.662 231.695 575.589 231.488 575.946ZM231.335 579.738L232.628 577.512L229.073 580.119C228.896 580.527 228.803 581.007 229.568 581.007C230.594 581.007 231.125 580.095 231.335 579.738ZM234.788 575.946L232.583 579.738C231.728 581.205 230.384 582.243 228.854 582.243C227.321 582.243 227.171 581.205 228.023 579.738L230.228 575.946C231.074 574.491 232.445 573.429 233.978 573.429C235.508 573.429 235.619 574.515 234.788 575.946Z" fill="#83D2EA"/>
<path fill-rule="evenodd" clip-rule="evenodd" d="M238.015 582.082H233.464L234.22 580.786H235.813L238.678 575.86H237.082L237.658 574.873C238.459 574.873 239.035 574.564 239.431 574.228C239.647 574.042 239.851 573.823 239.998 573.586H241.357L237.172 580.786H238.768L238.015 582.082Z" fill="#83D2EA"/>
<path fill-rule="evenodd" clip-rule="evenodd" d="M244.827 575.946L243.534 578.169L247.071 575.574C247.263 575.181 247.341 574.662 246.6 574.662C245.574 574.662 245.034 575.589 244.827 575.946ZM244.674 579.738L245.967 577.512L242.412 580.119C242.235 580.527 242.142 581.007 242.907 581.007C243.933 581.007 244.464 580.095 244.674 579.738ZM248.127 575.946L245.922 579.738C245.067 581.205 243.723 582.243 242.193 582.243C240.66 582.243 240.51 581.205 241.362 579.738L243.567 575.946C244.413 574.491 245.784 573.429 247.317 573.429C248.847 573.429 248.958 574.515 248.127 575.946Z" fill="#83D2EA"/>
<path fill-rule="evenodd" clip-rule="evenodd" d="M251.498 575.946L250.205 578.169L253.742 575.574C253.934 575.181 254.012 574.662 253.271 574.662C252.245 574.662 251.705 575.589 251.498 575.946ZM251.345 579.738L252.638 577.512L249.083 580.119C248.906 580.527 248.813 581.007 249.578 581.007C250.604 581.007 251.135 580.095 251.345 579.738ZM254.798 575.946L252.593 579.738C251.738 581.205 250.394 582.243 248.864 582.243C247.331 582.243 247.181 581.205 248.033 579.738L250.238 575.946C251.084 574.491 252.455 573.429 253.988 573.429C255.518 573.429 255.629 574.515 254.798 575.946Z" fill="#83D2EA"/>
<path fill-rule="evenodd" clip-rule="evenodd" d="M258.022 582.082H253.471L254.227 580.786H255.82L258.685 575.86H257.089L257.665 574.873C258.466 574.873 259.042 574.564 259.438 574.228C259.654 574.042 259.858 573.823 260.005 573.586H261.364L257.179 580.786H258.775L258.022 582.082Z" fill="#83D2EA"/>
<path fill-rule="evenodd" clip-rule="evenodd" d="M264.837 575.946L263.544 578.169L267.081 575.574C267.273 575.181 267.351 574.662 266.61 574.662C265.584 574.662 265.044 575.589 264.837 575.946ZM264.684 579.738L265.977 577.512L262.422 580.119C262.245 580.527 262.152 581.007 262.917 581.007C263.943 581.007 264.474 580.095 264.684 579.738ZM268.137 575.946L265.932 579.738C265.077 581.205 263.733 582.243 262.203 582.243C260.67 582.243 260.52 581.205 261.372 579.738L263.577 575.946C264.423 574.491 265.794 573.429 267.327 573.429C268.857 573.429 268.968 574.515 268.137 575.946Z" fill="#83D2EA"/>
<path fill-rule="evenodd" clip-rule="evenodd" d="M271.361 582.082H266.81L267.566 580.786H269.159L272.024 575.86H270.428L271.004 574.873C271.805 574.873 272.381 574.564 272.777 574.228C272.993 574.042 273.197 573.823 273.344 573.586H274.703L270.518 580.786H272.114L271.361 582.082Z" fill="#83D2EA"/>
<path fill-rule="evenodd" clip-rule="evenodd" d="M250.783 360.669L249.712 362.007L252.301 360.645C252.466 360.402 252.571 360.069 252.079 359.997C251.404 359.895 250.957 360.453 250.783 360.669ZM250.312 363.153L251.383 361.815L248.782 363.18C248.626 363.432 248.515 363.741 249.022 363.816C249.697 363.918 250.138 363.369 250.312 363.153ZM252.961 360.993L251.134 363.276C250.426 364.161 249.439 364.71 248.425 364.56C247.414 364.41 247.417 363.711 248.125 362.826L249.952 360.543C250.654 359.667 251.662 359.103 252.673 359.253C253.687 359.406 253.651 360.132 252.961 360.993Z" fill="#83D2EA"/>
<path fill-rule="evenodd" clip-rule="evenodd" d="M254.477 365.355L251.477 364.908L252.101 364.128L253.154 364.287L255.527 361.32L254.477 361.164L254.951 360.567C255.482 360.648 255.89 360.498 256.184 360.318C256.343 360.216 256.499 360.093 256.622 359.952L257.522 360.084L254.051 364.419L255.101 364.575L254.477 365.355Z" fill="#83D2EA"/>
<path fill-rule="evenodd" clip-rule="evenodd" d="M259.566 361.982L258.495 363.32L261.084 361.958C261.249 361.715 261.348 361.382 260.862 361.31C260.187 361.208 259.74 361.766 259.566 361.982ZM259.095 364.466L260.166 363.128L257.565 364.493C257.406 364.745 257.298 365.051 257.805 365.129C258.48 365.231 258.921 364.682 259.095 364.466ZM261.741 362.306L259.914 364.589C259.206 365.474 258.216 366.023 257.208 365.873C256.197 365.723 256.2 365.024 256.908 364.139L258.735 361.856C259.437 360.98 260.445 360.416 261.456 360.566C262.464 360.716 262.431 361.445 261.741 362.306Z" fill="#83D2EA"/>
<path fill-rule="evenodd" clip-rule="evenodd" d="M263.257 366.668L260.26 366.221L260.884 365.441L261.937 365.6L264.31 362.63L263.257 362.474L263.734 361.88C264.265 361.958 264.673 361.811 264.964 361.631C265.129 361.529 265.282 361.403 265.405 361.262L266.302 361.397L262.831 365.732L263.881 365.888L263.257 366.668Z" fill="#83D2EA"/>
<path fill-rule="evenodd" clip-rule="evenodd" d="M267.652 367.324L264.652 366.877L265.276 366.097L266.329 366.256L268.702 363.286L267.652 363.13L268.126 362.536C268.657 362.614 269.065 362.467 269.359 362.287C269.521 362.185 269.674 362.059 269.797 361.918L270.697 362.053L267.226 366.388L268.276 366.544L267.652 367.324Z" fill="#83D2EA"/>
<path fill-rule="evenodd" clip-rule="evenodd" d="M272.741 363.949L271.67 365.287L274.259 363.925C274.424 363.682 274.526 363.352 274.037 363.277C273.362 363.175 272.915 363.733 272.741 363.949ZM272.27 366.433L273.341 365.095L270.74 366.46C270.584 366.715 270.473 367.021 270.98 367.096C271.655 367.198 272.096 366.649 272.27 366.433ZM274.919 364.273L273.092 366.556C272.384 367.441 271.394 367.993 270.383 367.84C269.372 367.69 269.375 366.991 270.083 366.106L271.91 363.826C272.612 362.947 273.62 362.383 274.631 362.533C275.642 362.686 275.609 363.412 274.919 364.273Z" fill="#83D2EA"/>
<path fill-rule="evenodd" clip-rule="evenodd" d="M277.133 364.605L276.062 365.943L278.651 364.581C278.816 364.338 278.921 364.008 278.432 363.933C277.754 363.831 277.307 364.389 277.133 364.605ZM276.662 367.089L277.733 365.751L275.132 367.116C274.976 367.371 274.865 367.677 275.375 367.752C276.047 367.854 276.488 367.305 276.662 367.089ZM279.311 364.929L277.484 367.212C276.776 368.097 275.789 368.649 274.778 368.496C273.764 368.346 273.767 367.647 274.475 366.762L276.302 364.482C277.004 363.603 278.012 363.039 279.026 363.189C280.037 363.342 280.001 364.068 279.311 364.929Z" fill="#83D2EA"/>
<path fill-rule="evenodd" clip-rule="evenodd" d="M244.097 369.022L243.026 370.36L245.612 369.001C245.777 368.758 245.885 368.422 245.393 368.35C244.715 368.248 244.271 368.806 244.097 369.022ZM243.623 371.506L244.694 370.168L242.096 371.536C241.94 371.788 241.826 372.097 242.333 372.172C243.011 372.271 243.452 371.722 243.623 371.506ZM246.275 369.346L244.448 371.629C243.737 372.517 242.753 373.066 241.739 372.916C240.728 372.766 240.728 372.067 241.439 371.179L243.266 368.896C243.968 368.023 244.976 367.456 245.987 367.606C247.001 367.759 246.965 368.485 246.275 369.346Z" fill="#83D2EA"/>
<path fill-rule="evenodd" clip-rule="evenodd" d="M247.79 373.711L244.79 373.264L245.414 372.481L246.467 372.64L248.84 369.673L247.79 369.517L248.264 368.92C248.795 369.001 249.206 368.854 249.497 368.671C249.656 368.572 249.815 368.446 249.935 368.305L250.835 368.44L247.367 372.775L248.414 372.928L247.79 373.711Z" fill="#83D2EA"/>
<path fill-rule="evenodd" clip-rule="evenodd" d="M252.881 370.334L251.81 371.672L254.396 370.313C254.561 370.07 254.663 369.734 254.177 369.662C253.499 369.56 253.055 370.118 252.881 370.334ZM252.407 372.818L253.478 371.48L250.88 372.848C250.721 373.1 250.61 373.406 251.117 373.484C251.795 373.583 252.236 373.034 252.407 372.818ZM255.056 370.658L253.229 372.941C252.518 373.829 251.531 374.378 250.523 374.228C249.512 374.078 249.512 373.379 250.223 372.491L252.05 370.208C252.752 369.335 253.76 368.768 254.771 368.918C255.779 369.071 255.746 369.797 255.056 370.658Z" fill="#83D2EA"/>
<path fill-rule="evenodd" clip-rule="evenodd" d="M257.272 370.991L256.201 372.329L258.787 370.97C258.952 370.727 259.057 370.391 258.568 370.319C257.89 370.217 257.446 370.775 257.272 370.991ZM256.798 373.475L257.869 372.137L255.271 373.505C255.115 373.757 255.001 374.063 255.508 374.141C256.186 374.24 256.627 373.691 256.798 373.475ZM259.45 371.315L257.623 373.598C256.912 374.486 255.925 375.035 254.914 374.885C253.903 374.735 253.903 374.036 254.614 373.148L256.441 370.865C257.143 369.992 258.151 369.425 259.162 369.575C260.173 369.728 260.14 370.454 259.45 371.315Z" fill="#83D2EA"/>
<path fill-rule="evenodd" clip-rule="evenodd" d="M260.965 375.68L257.965 375.233L258.589 374.45L259.642 374.609L262.015 371.642L260.965 371.486L261.439 370.889C261.97 370.97 262.381 370.823 262.672 370.64C262.834 370.541 262.99 370.412 263.11 370.274L264.01 370.409L260.542 374.741L261.589 374.897L260.965 375.68Z" fill="#83D2EA"/>
<path fill-rule="evenodd" clip-rule="evenodd" d="M266.055 372.302L264.984 373.64L267.57 372.281C267.735 372.038 267.84 371.705 267.351 371.63C266.673 371.528 266.229 372.089 266.055 372.302ZM265.581 374.786L266.652 373.451L264.054 374.816C263.898 375.068 263.784 375.377 264.291 375.452C264.969 375.554 265.41 375.002 265.581 374.786ZM268.233 372.626L266.406 374.909C265.695 375.797 264.708 376.349 263.697 376.196C262.686 376.046 262.686 375.347 263.397 374.462L265.224 372.179C265.926 371.303 266.934 370.739 267.945 370.889C268.956 371.039 268.923 371.765 268.233 372.626Z" fill="#83D2EA"/>
<path fill-rule="evenodd" clip-rule="evenodd" d="M269.749 376.992L266.749 376.545L267.373 375.762L268.426 375.918L270.799 372.954L269.749 372.798L270.223 372.201C270.754 372.282 271.165 372.135 271.453 371.952C271.615 371.853 271.774 371.724 271.894 371.586L272.794 371.721L269.326 376.053L270.373 376.209L269.749 376.992Z" fill="#83D2EA"/>
<path fill-rule="evenodd" clip-rule="evenodd" d="M313.607 707.165L286.817 662.519L313.607 617.873H304.676L281.744 656.093L260.03 662.519H277.889L302.708 703.88L286.817 707.165H304.676L277.889 751.811V791.204L260.03 796.457H277.889L304.676 841.103L277.889 885.749H286.817L313.607 841.103L286.817 796.457V751.811L313.607 707.165Z" fill="white"/>
<path fill-rule="evenodd" clip-rule="evenodd" d="M404.923 871.937C403.42 871.937 402.202 873.155 402.202 874.658C402.202 876.161 403.42 877.376 404.923 877.376" fill="#D4DBDF"/>
<path fill-rule="evenodd" clip-rule="evenodd" d="M343.6 885.751H397.621V853.381H343.6V885.751Z" fill="#607D8B"/>
<path fill-rule="evenodd" clip-rule="evenodd" d="M382.889 765.146V853.379H358.334H328.868V765.146H382.889Z" fill="white"/>
<path fill-rule="evenodd" clip-rule="evenodd" d="M369.286 798.088C369.286 796.585 370.504 795.367 372.007 795.367C373.51 795.367 374.725 796.585 374.725 798.088C374.725 799.591 373.51 800.809 372.007 800.809C370.504 800.809 369.286 799.591 369.286 798.088Z" fill="#D4DBDF"/>
<path fill-rule="evenodd" clip-rule="evenodd" d="M358.235 798.088C358.235 796.585 359.453 795.367 360.956 795.367C362.459 795.367 363.677 796.585 363.677 798.088C363.677 799.591 362.459 800.809 360.956 800.809C359.453 800.809 358.235 799.591 358.235 798.088Z" fill="#D4DBDF"/>
<path fill-rule="evenodd" clip-rule="evenodd" d="M424.411 765.146V885.749H397.621V853.379H382.888V765.146H424.411Z" fill="#D4DBDF"/>
<path fill-rule="evenodd" clip-rule="evenodd" d="M342.47 776.197C342.47 777.7 341.252 778.918 339.749 778.918C338.246 778.918 337.031 777.7 337.031 776.197C337.031 774.694 338.246 773.479 339.749 773.479C341.252 773.479 342.47 774.694 342.47 776.197Z" fill="#D4DBDF"/>
<path fill-rule="evenodd" clip-rule="evenodd" d="M353.521 776.197C353.521 777.7 352.303 778.918 350.8 778.918C349.297 778.918 348.079 777.7 348.079 776.197C348.079 774.694 349.297 773.479 350.8 773.479C352.303 773.479 353.521 774.694 353.521 776.197Z" fill="#607D8B"/>
<path fill-rule="evenodd" clip-rule="evenodd" d="M342.47 820.398C342.47 821.901 341.252 823.119 339.749 823.119C338.246 823.119 337.031 821.901 337.031 820.398C337.031 818.895 338.246 817.677 339.749 817.677C341.252 817.677 342.47 818.895 342.47 820.398Z" fill="#607D8B"/>
<path fill-rule="evenodd" clip-rule="evenodd" d="M353.521 820.398C353.521 821.901 352.303 823.119 350.8 823.119C349.297 823.119 348.079 821.901 348.079 820.398C348.079 818.895 349.297 817.677 350.8 817.677C352.303 817.677 353.521 818.895 353.521 820.398Z" fill="#607D8B"/>
<path fill-rule="evenodd" clip-rule="evenodd" d="M369.286 842.288C369.286 840.785 370.504 839.567 372.007 839.567C373.51 839.567 374.725 840.785 374.725 842.288C374.725 843.791 373.51 845.009 372.007 845.009C370.504 845.009 369.286 843.791 369.286 842.288Z" fill="#607D8B"/>
<path fill-rule="evenodd" clip-rule="evenodd" d="M358.235 842.288C358.235 840.785 359.453 839.567 360.956 839.567C362.459 839.567 363.677 840.785 363.677 842.288C363.677 843.791 362.459 845.009 360.956 845.009C359.453 845.009 358.235 843.791 358.235 842.288Z" fill="#D4DBDF"/>
<path fill-rule="evenodd" clip-rule="evenodd" d="M373.345 869.563C373.345 874.033 376.969 877.654 381.436 877.654C385.906 877.654 389.53 874.033 389.53 869.563C389.53 865.096 385.906 861.472 381.436 861.472C376.969 861.472 373.345 865.096 373.345 869.563Z" fill="#28404E"/>
<path fill-rule="evenodd" clip-rule="evenodd" d="M351.693 869.563C351.693 874.033 355.317 877.654 359.784 877.654C364.254 877.654 367.878 874.033 367.878 869.563C367.878 865.096 364.254 861.472 359.784 861.472C355.317 861.472 351.693 865.096 351.693 869.563Z" fill="#28404E"/>
<path d="M382.89 787.471H328.869" stroke="#D5DBDF" stroke-width="1.785"/>
<path fill-rule="evenodd" clip-rule="evenodd" d="M442.939 808.119C442.939 809.622 441.721 810.84 440.218 810.84C438.715 810.84 437.5 809.622 437.5 808.119C437.5 806.616 438.715 805.401 440.218 805.401C441.721 805.401 442.939 806.616 442.939 808.119Z" fill="#D4DBDF"/>
<path fill-rule="evenodd" clip-rule="evenodd" d="M451.896 874.21C451.896 872.707 453.114 871.489 454.617 871.489C456.12 871.489 457.338 872.707 457.338 874.21C457.338 875.713 456.12 876.931 454.617 876.931C453.114 876.931 451.896 875.713 451.896 874.21Z" fill="#D4DBDF"/>
<path fill-rule="evenodd" clip-rule="evenodd" d="M440.846 874.21C440.846 872.707 442.064 871.489 443.567 871.489C445.07 871.489 446.285 872.707 446.285 874.21C446.285 875.713 445.07 876.931 443.567 876.931C442.064 876.931 440.846 875.713 440.846 874.21Z" fill="#D4DBDF"/>
<path fill-rule="evenodd" clip-rule="evenodd" d="M415.481 797.516V885.749H458.453H480.554V797.516H415.481Z" fill="#D4DBDF"/>
<path fill-rule="evenodd" clip-rule="evenodd" d="M406.552 885.751H433.342V797.518H406.552V885.751Z" fill="white"/>
<path fill-rule="evenodd" clip-rule="evenodd" d="M446.945 808.567C446.945 810.07 445.727 811.288 444.224 811.288C442.721 811.288 441.503 810.07 441.503 808.567C441.503 807.064 442.721 805.846 444.224 805.846C445.727 805.846 446.945 807.064 446.945 808.567Z" fill="white"/>
<path fill-rule="evenodd" clip-rule="evenodd" d="M457.994 808.567C457.994 810.07 456.776 811.288 455.273 811.288C453.77 811.288 452.555 810.07 452.555 808.567C452.555 807.064 453.77 805.846 455.273 805.846C456.776 805.846 457.994 807.064 457.994 808.567Z" fill="#607D8B"/>
<path d="M480.554 863.648H433.34" stroke="#607D8B" stroke-width="1.785"/>
<path fill-rule="evenodd" clip-rule="evenodd" d="M446.945 852.768C446.945 854.271 445.727 855.486 444.224 855.486C442.721 855.486 441.503 854.271 441.503 852.768C441.503 851.265 442.721 850.047 444.224 850.047C445.727 850.047 446.945 851.265 446.945 852.768Z" fill="white"/>
<path fill-rule="evenodd" clip-rule="evenodd" d="M457.994 852.768C457.994 854.271 456.776 855.486 455.273 855.486C453.77 855.486 452.555 854.271 452.555 852.768C452.555 851.265 453.77 850.047 455.273 850.047C456.776 850.047 457.994 851.265 457.994 852.768Z" fill="white"/>
<path fill-rule="evenodd" clip-rule="evenodd" d="M466.952 874.658C466.952 873.155 468.17 871.937 469.673 871.937C471.176 871.937 472.391 873.155 472.391 874.658C472.391 876.161 471.176 877.376 469.673 877.376C468.17 877.376 466.952 876.161 466.952 874.658Z" fill="white"/>
<path fill-rule="evenodd" clip-rule="evenodd" d="M455.901 874.658C455.901 873.155 457.119 871.937 458.622 871.937C460.125 871.937 461.343 873.155 461.343 874.658C461.343 876.161 460.125 877.376 458.622 877.376C457.119 877.376 455.901 876.161 455.901 874.658Z" fill="#607D8B"/>
<path fill-rule="evenodd" clip-rule="evenodd" d="M466.952 830.276C466.952 831.779 468.17 832.997 469.673 832.997C471.176 832.997 472.391 831.779 472.391 830.276C472.391 828.773 471.176 827.555 469.673 827.555C468.17 827.555 466.952 828.773 466.952 830.276Z" fill="#607D8B"/>
<path fill-rule="evenodd" clip-rule="evenodd" d="M455.901 830.276C455.901 831.779 457.119 832.997 458.622 832.997C460.125 832.997 461.343 831.779 461.343 830.276C461.343 828.773 460.125 827.555 458.622 827.555C457.119 827.555 455.901 828.773 455.901 830.276Z" fill="#607D8B"/>
<path d="M382.89 831.504H328.869" stroke="#D5DBDF" stroke-width="1.785"/>
<path d="M382.89 809.18H328.869" stroke="#D5DBDF" stroke-width="1.785"/>
<path d="M480.554 841.55H433.34" stroke="#607D8B" stroke-width="1.785"/>
<path d="M480.554 819.225H433.34" stroke="#607D8B" stroke-width="1.785"/>
<path fill-rule="evenodd" clip-rule="evenodd" d="M131.209 881.276C131.209 883.745 133.204 885.749 135.664 885.749H229.24C231.7 885.749 233.695 883.745 233.695 881.276H131.209Z" fill="#607D8B"/>
<path fill-rule="evenodd" clip-rule="evenodd" d="M115.583 881.276C115.583 883.745 117.578 885.749 120.038 885.749H204.674V881.276H115.583Z" fill="#F5F6F7"/>
<path fill-rule="evenodd" clip-rule="evenodd" d="M233.706 825.372H157.989C155.529 825.372 153.534 827.373 153.534 829.842V881.277H233.697C236.16 881.277 238.158 879.279 238.158 876.81V829.842C238.158 827.373 236.166 825.372 233.706 825.372Z" fill="#607D8B"/>
<path fill-rule="evenodd" clip-rule="evenodd" d="M229.241 825.372H153.524C151.064 825.372 149.069 827.373 149.069 829.842V881.277H233.693V829.842C233.693 827.373 231.701 825.372 229.241 825.372Z" fill="#28404E"/>
<path fill-rule="evenodd" clip-rule="evenodd" d="M153.532 876.811H229.228V829.837H153.532V876.811Z" fill="#83D2EA"/>
<path fill-rule="evenodd" clip-rule="evenodd" d="M438.492 760.676C438.492 763.145 436.497 765.146 434.04 765.146H340.461C338.001 765.146 336.006 763.145 336.006 760.676H438.492Z" fill="white"/>
<path fill-rule="evenodd" clip-rule="evenodd" d="M454.119 760.676C454.119 763.145 452.124 765.146 449.667 765.146H365.028V760.676H454.119Z" fill="#607D8B"/>
<path fill-rule="evenodd" clip-rule="evenodd" d="M335.996 704.77H411.713C414.176 704.77 416.168 706.771 416.168 709.243V760.675H336.008C333.542 760.675 331.544 758.674 331.544 756.211V709.243C331.544 706.771 333.536 704.77 335.996 704.77Z" fill="white"/>
<path fill-rule="evenodd" clip-rule="evenodd" d="M340.461 704.77H416.178C418.641 704.77 420.633 706.771 420.633 709.243V760.675H336.009V709.243C336.009 706.771 338.001 704.77 340.461 704.77Z" fill="#28404E"/>
<path fill-rule="evenodd" clip-rule="evenodd" d="M340.471 756.211H416.167V709.234H340.471V756.211Z" fill="#DF6AA4"/>
<path fill-rule="evenodd" clip-rule="evenodd" d="M172.981 850.714L183.52 845.83V849.301L175.807 852.706L183.52 856.081V859.585L172.981 854.665V850.714Z" fill="#10A1DC"/>
<path fill-rule="evenodd" clip-rule="evenodd" d="M193.518 841.362H197.214L189.243 864.948H185.55L193.518 841.362Z" fill="#10A1DC"/>
<path fill-rule="evenodd" clip-rule="evenodd" d="M209.782 854.666L199.21 859.586V856.082L206.92 852.707L199.21 849.302V845.831L209.782 850.715V854.666Z" fill="#10A1DC"/>
<path fill-rule="evenodd" clip-rule="evenodd" d="M359.918 730.115L370.457 725.231V728.702L362.744 732.11L370.457 735.482V738.986L359.918 734.069V730.115Z" fill="#5B5598"/>
<path fill-rule="evenodd" clip-rule="evenodd" d="M380.455 720.764H384.151L376.18 744.35H372.487L380.455 720.764Z" fill="#5B5598"/>
<path fill-rule="evenodd" clip-rule="evenodd" d="M396.719 734.068L386.147 738.985V735.481L393.857 732.109L386.147 728.701V725.23L396.719 730.114V734.068Z" fill="#5B5598"/>
<path fill-rule="evenodd" clip-rule="evenodd" d="M168.774 370.187C161.367 362.777 153.957 362.777 146.55 370.187C153.957 362.777 153.957 355.37 146.55 347.96C153.957 355.37 161.367 355.37 168.774 347.96C161.367 355.37 161.367 362.777 168.774 370.187Z" fill="#ECB4D2"/>
<path fill-rule="evenodd" clip-rule="evenodd" d="M419.429 244.818C410.843 244.818 406.553 249.111 406.553 257.694C406.553 249.111 402.26 244.818 393.674 244.818C402.26 244.818 406.553 240.525 406.553 231.942C406.553 240.525 410.843 244.818 419.429 244.818Z" fill="#ECD874"/>
<path fill-rule="evenodd" clip-rule="evenodd" d="M235.165 142.863C235.165 165.303 216.973 183.495 194.533 183.495C172.093 183.495 153.901 165.303 153.901 142.863C153.901 120.423 172.093 102.231 194.533 102.231C216.973 102.231 235.165 120.423 235.165 142.863Z" fill="white"/>
<path fill-rule="evenodd" clip-rule="evenodd" d="M153.901 142.863C153.901 165.303 172.093 183.495 194.533 183.495V102.231C172.093 102.231 153.901 120.423 153.901 142.863Z" fill="#F6F6F6"/>
<path fill-rule="evenodd" clip-rule="evenodd" d="M463.689 539.246C463.689 542.045 461.421 544.313 458.622 544.313C455.823 544.313 453.555 542.045 453.555 539.246C453.555 536.447 455.823 534.179 458.622 534.179C461.421 534.179 463.689 536.447 463.689 539.246Z" fill="#83D2EA"/>
<path fill-rule="evenodd" clip-rule="evenodd" d="M101.672 595.103C101.672 597.116 100.043 598.745 98.0303 598.745C96.0173 598.745 94.3853 597.116 94.3853 595.103C94.3853 593.09 96.0173 591.458 98.0303 591.458C100.043 591.458 101.672 593.09 101.672 595.103Z" fill="white"/>
<path fill-rule="evenodd" clip-rule="evenodd" d="M206.29 167.985C206.29 172.527 202.606 176.211 198.064 176.211C193.519 176.211 189.838 172.527 189.838 167.985C189.838 163.44 193.519 159.759 198.064 159.759C202.606 159.759 206.29 163.44 206.29 167.985Z" fill="#D5DBDF"/>
<path fill-rule="evenodd" clip-rule="evenodd" d="M218.426 138.316C218.426 140.476 216.677 142.228 214.514 142.228C212.357 142.228 210.605 140.476 210.605 138.316C210.605 136.156 212.357 134.407 214.514 134.407C216.677 134.407 218.426 136.156 218.426 138.316Z" fill="#D5DBDF"/>
<path fill-rule="evenodd" clip-rule="evenodd" d="M189.432 128.136C189.432 133.761 184.872 138.318 179.25 138.318C173.628 138.318 169.068 133.761 169.068 128.136C169.068 122.511 173.628 117.954 179.25 117.954C184.872 117.954 189.432 122.511 189.432 128.136Z" fill="#D5DBDF"/>
<path fill-rule="evenodd" clip-rule="evenodd" d="M222.202 157.062C222.202 159.744 220.027 161.916 217.348 161.916C214.666 161.916 212.491 159.744 212.491 157.062C212.491 154.38 214.666 152.208 217.348 152.208C220.027 152.208 222.202 154.38 222.202 157.062Z" fill="#D5DBDF"/>
<path fill-rule="evenodd" clip-rule="evenodd" d="M207.368 117.414C207.368 118.905 206.162 120.111 204.671 120.111C203.18 120.111 201.974 118.905 201.974 117.414C201.974 115.923 203.18 114.717 204.671 114.717C206.162 114.717 207.368 115.923 207.368 117.414Z" fill="#D5DBDF"/>
<path fill-rule="evenodd" clip-rule="evenodd" d="M171.497 151.397C171.497 153.632 169.685 155.444 167.45 155.444C165.218 155.444 163.406 153.632 163.406 151.397C163.406 149.162 165.218 147.35 167.45 147.35C169.685 147.35 171.497 149.162 171.497 151.397Z" fill="#D5DBDF"/>
<path fill-rule="evenodd" clip-rule="evenodd" d="M96.1733 671.613C61.3493 664.686 27.5033 687.3 20.5763 722.124L8.03334 785.175V785.178C1.10634 820.005 23.7203 853.851 58.5473 860.778C93.3683 867.705 127.217 845.088 134.141 810.267L146.684 747.216V747.21C153.611 712.386 130.997 678.54 96.1733 671.613Z" fill="#F6F6F6"/>
<path fill-rule="evenodd" clip-rule="evenodd" d="M96.1734 671.613L58.5474 860.778C93.3684 867.705 127.217 845.088 134.141 810.267L146.684 747.216V747.21C153.611 712.386 130.997 678.54 96.1734 671.613Z" fill="white"/>
<path fill-rule="evenodd" clip-rule="evenodd" d="M123.34 756.849C124.207 761.202 128.437 764.031 132.79 763.161C137.143 762.297 139.969 758.067 139.102 753.714C138.238 749.361 134.008 746.535 129.652 747.399C125.302 748.266 122.473 752.496 123.34 756.849Z" fill="#DC6AA1"/>
<path fill-rule="evenodd" clip-rule="evenodd" d="M39.2666 773.572C40.1336 777.925 44.3636 780.754 48.7166 779.887C53.0696 779.02 55.8956 774.79 55.0286 770.437C54.1646 766.084 49.9346 763.258 45.5786 764.125C41.2286 764.989 38.3996 769.222 39.2666 773.572Z" fill="#DC6AA1"/>
<path fill-rule="evenodd" clip-rule="evenodd" d="M127.506 736.849L41.7542 719.791C39.8072 726.283 39.3752 733.333 40.7882 740.443C40.8752 740.878 40.9802 741.304 41.0762 741.733L58.0652 827.137L142.137 810.412L127.506 736.849Z" fill="#EBB2CF"/>
<path d="M174.216 748.763C166.299 772.004 154.452 778.361 136.707 783.092" stroke="#DC6AA1" stroke-width="4.017" stroke-linecap="round" stroke-linejoin="round"/>
<path d="M46.5939 830.311C39.8769 820.216 42.5799 806.563 52.6329 799.816" stroke="#DC6AA1" stroke-width="4.017" stroke-linecap="round" stroke-linejoin="round"/>
<path d="M79.8709 818.071L65.2939 886.156" stroke="#F79838" stroke-width="4.017" stroke-linecap="round" stroke-linejoin="round"/>
<path d="M99.9627 818.071L85.3857 886.156" stroke="#F79838" stroke-width="4.017" stroke-linecap="round" stroke-linejoin="round"/>
<path opacity="0.5" fill-rule="evenodd" clip-rule="evenodd" d="M59.2506 778.421C60.1176 782.771 64.3476 785.6 68.6976 784.733C73.0506 783.866 75.8766 779.636 75.0096 775.286C74.1456 770.933 69.9156 768.107 65.5626 768.974C61.2096 769.841 58.3836 774.068 59.2506 778.421Z" fill="#DC6AA1"/>
<path opacity="0.5" fill-rule="evenodd" clip-rule="evenodd" d="M106.541 769.014C107.408 773.367 111.638 776.193 115.988 775.326C120.341 774.459 123.167 770.232 122.3 765.879C121.436 761.526 117.206 758.7 112.853 759.567C108.503 760.434 105.674 764.664 106.541 769.014Z" fill="#DC6AA1"/>
<path fill-rule="evenodd" clip-rule="evenodd" d="M70.0532 778.16C77.0612 780.893 95.4812 785.723 112.122 769.796C112.848 769.1 112.218 767.885 111.234 768.083L70.2212 776.237C69.2342 776.435 69.1172 777.794 70.0532 778.16Z" fill="white"/>
<mask id="mask0" mask-type="alpha" maskUnits="userSpaceOnUse" x="80" y="746" width="14" height="21">
<path fill-rule="evenodd" clip-rule="evenodd" d="M80.5991 748.228L83.3411 762.022C83.9201 764.923 86.7371 766.807 89.6411 766.231C92.5421 765.652 94.4291 762.832 93.8501 759.928L91.1081 746.137L80.5991 748.228Z" fill="white"/>
</mask>
<g mask="url(#mask0)">
<path opacity="0.5" fill-rule="evenodd" clip-rule="evenodd" d="M80.5991 748.228L83.3411 762.022C83.9201 764.923 86.7371 766.807 89.6411 766.231C92.5421 765.652 94.4291 762.832 93.8501 759.928L91.1081 746.137L80.5991 748.228Z" fill="url(#paint0_linear)"/>
</g>
<path fill-rule="evenodd" clip-rule="evenodd" d="M75.9039 755.306C76.1919 756.755 75.2499 758.168 73.7979 758.456C72.3489 758.744 70.9389 757.802 70.6509 756.353C70.3599 754.901 71.3019 753.491 72.7539 753.203C74.2059 752.912 75.6159 753.857 75.9039 755.306Z" fill="#1B4F63"/>
<path fill-rule="evenodd" clip-rule="evenodd" d="M103.491 749.818C103.779 751.267 102.837 752.68 101.385 752.968C99.9334 753.256 98.5264 752.314 98.2354 750.865C97.9474 749.413 98.8894 748.003 100.341 747.712C101.793 747.424 103.203 748.369 103.491 749.818Z" fill="#1B4F63"/>
<path fill-rule="evenodd" clip-rule="evenodd" d="M53.8848 806.118L137.993 789.387L142.172 810.405L58.0668 827.136L53.8848 806.118Z" fill="#5B5598"/>
<path opacity="0.33" fill-rule="evenodd" clip-rule="evenodd" d="M127.506 736.849L82.0229 727.801L100.119 818.773L142.137 810.412L127.506 736.849Z" fill="white"/>
<path d="M92.3574 739.457H108.953" stroke="#607D8B" stroke-width="3.348" stroke-linecap="round" stroke-linejoin="round"/>
<path d="M61.5146 749.974L77.7896 746.737" stroke="#607D8B" stroke-width="3.348" stroke-linecap="round" stroke-linejoin="round"/>
<path opacity="0.33" fill-rule="evenodd" clip-rule="evenodd" d="M49.5924 750.855C47.8614 759.558 53.5164 768.021 62.2194 769.755L68.4924 738.225C59.7864 736.494 51.3264 742.149 49.5924 750.855Z" fill="white"/>
<path fill-rule="evenodd" clip-rule="evenodd" d="M123.157 742.493C124.891 751.199 119.236 759.659 110.53 761.39C101.824 763.124 93.3611 757.472 91.6301 748.763C89.8991 740.057 95.5511 731.597 104.257 729.866C112.966 728.132 121.426 733.787 123.157 742.493Z" stroke="#1B4F63" stroke-width="1.785"/>
<path d="M81.1206 750.855L91.6296 748.764" stroke="#1B4F63" stroke-width="1.785"/>
<path fill-rule="evenodd" clip-rule="evenodd" d="M81.1205 750.855C82.8545 759.558 77.1995 768.021 68.4935 769.755C59.7875 771.486 51.3245 765.831 49.5935 757.125C47.8625 748.419 53.5145 739.959 62.2205 738.225C70.9295 736.494 79.3895 742.149 81.1205 750.855Z" stroke="#1B4F63" stroke-width="1.785"/>
<defs>
<linearGradient id="paint0_linear" x1="95.9395" y1="763.365" x2="88.1103" y2="746.155" gradientUnits="userSpaceOnUse">
<stop stop-color="#DB69A1"/>
<stop offset="1" stop-color="#DB69A1"/>
</linearGradient>
</defs>
</svg>
